<mxfile host="Electron" modified="2023-04-20T22:52:41.873Z" agent="Mozilla/5.0 (Windows NT 10.0; Win64; x64) AppleWebKit/537.36 (KHTML, like Gecko) draw.io/21.1.2 Chrome/106.0.5249.199 Electron/21.4.3 Safari/537.36" etag="zsjFlZFVhaEnjywWjKu7" version="21.1.2" type="device" pages="3">
  <diagram name="V1.0" id="reXOlka0RR7HOdJJbHTf">
    <mxGraphModel dx="1863" dy="614" grid="1" gridSize="10" guides="1" tooltips="1" connect="1" arrows="1" fold="1" page="1" pageScale="1" pageWidth="827" pageHeight="1169" math="0" shadow="0">
      <root>
        <mxCell id="0" />
        <mxCell id="1" parent="0" />
        <mxCell id="ksUGWsf0ZPR4c5a9Apki-6" value="&lt;div style=&quot;font-size: 15px;&quot;&gt;&lt;b style=&quot;font-size: 15px;&quot;&gt;&lt;font style=&quot;font-size: 15px;&quot;&gt;Treasury&lt;/font&gt;&lt;/b&gt;&lt;/div&gt;" style="rounded=1;whiteSpace=wrap;html=1;align=right;fontSize=15;" parent="1" vertex="1">
          <mxGeometry x="233.5" y="220" width="680" height="163" as="geometry" />
        </mxCell>
        <mxCell id="ksUGWsf0ZPR4c5a9Apki-1" value="KYCed Private Funding Wallet Founder/Member#1" style="rounded=1;whiteSpace=wrap;html=1;fontSize=15;" parent="1" vertex="1">
          <mxGeometry x="243.5" y="114.25" width="186.5" height="60" as="geometry" />
        </mxCell>
        <mxCell id="ksUGWsf0ZPR4c5a9Apki-2" value="KYCed&amp;nbsp;Private Funding Wallet Founder/Member#2" style="rounded=1;whiteSpace=wrap;html=1;fontSize=15;" parent="1" vertex="1">
          <mxGeometry x="464" y="114.25" width="180" height="60" as="geometry" />
        </mxCell>
        <mxCell id="ksUGWsf0ZPR4c5a9Apki-3" value="Multisig Ethereum Safe" style="rounded=1;whiteSpace=wrap;html=1;fontSize=15;" parent="1" vertex="1">
          <mxGeometry x="473.5" y="271.5" width="120" height="60" as="geometry" />
        </mxCell>
        <mxCell id="ksUGWsf0ZPR4c5a9Apki-4" value="Multisig Polygon Safe" style="rounded=1;whiteSpace=wrap;html=1;fontSize=15;" parent="1" vertex="1">
          <mxGeometry x="263.5" y="271.5" width="120" height="60" as="geometry" />
        </mxCell>
        <mxCell id="ksUGWsf0ZPR4c5a9Apki-5" value="Multisig Cardano Safe" style="rounded=1;whiteSpace=wrap;html=1;fontSize=15;" parent="1" vertex="1">
          <mxGeometry x="683.5" y="271.5" width="120" height="60" as="geometry" />
        </mxCell>
        <mxCell id="ksUGWsf0ZPR4c5a9Apki-8" value="" style="endArrow=classic;startArrow=none;html=1;rounded=0;entryX=0.5;entryY=0;entryDx=0;entryDy=0;exitX=0.5;exitY=1;exitDx=0;exitDy=0;strokeColor=#0000FF;strokeWidth=3;startFill=0;fontSize=15;" parent="1" source="ksUGWsf0ZPR4c5a9Apki-1" target="ksUGWsf0ZPR4c5a9Apki-3" edge="1">
          <mxGeometry width="50" height="50" relative="1" as="geometry">
            <mxPoint x="463.5" y="260" as="sourcePoint" />
            <mxPoint x="513.5" y="210" as="targetPoint" />
          </mxGeometry>
        </mxCell>
        <mxCell id="ksUGWsf0ZPR4c5a9Apki-41" value="500€@01.05.23" style="edgeLabel;html=1;align=center;verticalAlign=middle;resizable=0;points=[];fontSize=15;fontColor=#050505;" parent="ksUGWsf0ZPR4c5a9Apki-8" vertex="1" connectable="0">
          <mxGeometry x="-0.2018" y="1" relative="1" as="geometry">
            <mxPoint x="135" y="28" as="offset" />
          </mxGeometry>
        </mxCell>
        <mxCell id="ksUGWsf0ZPR4c5a9Apki-9" value="" style="endArrow=classic;startArrow=none;html=1;rounded=0;entryX=0.5;entryY=0;entryDx=0;entryDy=0;exitX=0.5;exitY=1;exitDx=0;exitDy=0;fontColor=#050505;strokeColor=#00FF00;strokeWidth=3;startFill=0;fontSize=15;" parent="1" source="ksUGWsf0ZPR4c5a9Apki-1" target="ksUGWsf0ZPR4c5a9Apki-4" edge="1">
          <mxGeometry width="50" height="50" relative="1" as="geometry">
            <mxPoint x="243.5" y="100" as="sourcePoint" />
            <mxPoint x="323.5" y="100" as="targetPoint" />
          </mxGeometry>
        </mxCell>
        <mxCell id="ksUGWsf0ZPR4c5a9Apki-38" value="500€@01.04.23" style="edgeLabel;html=1;align=center;verticalAlign=middle;resizable=0;points=[];fontSize=15;fontColor=#050505;" parent="ksUGWsf0ZPR4c5a9Apki-9" vertex="1" connectable="0">
          <mxGeometry x="-0.3735" relative="1" as="geometry">
            <mxPoint x="-10" y="36" as="offset" />
          </mxGeometry>
        </mxCell>
        <mxCell id="ksUGWsf0ZPR4c5a9Apki-11" value="" style="endArrow=classic;startArrow=none;html=1;rounded=0;entryX=0.5;entryY=0;entryDx=0;entryDy=0;exitX=0.5;exitY=1;exitDx=0;exitDy=0;strokeColor=#0000FF;strokeWidth=3;startFill=0;fontSize=15;" parent="1" source="ksUGWsf0ZPR4c5a9Apki-2" target="ksUGWsf0ZPR4c5a9Apki-3" edge="1">
          <mxGeometry width="50" height="50" relative="1" as="geometry">
            <mxPoint x="263.5" y="120" as="sourcePoint" />
            <mxPoint x="343.5" y="120" as="targetPoint" />
          </mxGeometry>
        </mxCell>
        <mxCell id="ksUGWsf0ZPR4c5a9Apki-12" value="" style="endArrow=classic;startArrow=none;html=1;rounded=0;entryX=0.5;entryY=0;entryDx=0;entryDy=0;exitX=0.5;exitY=1;exitDx=0;exitDy=0;strokeColor=#00FF00;strokeWidth=3;startFill=0;fontSize=15;" parent="1" source="ksUGWsf0ZPR4c5a9Apki-2" target="ksUGWsf0ZPR4c5a9Apki-4" edge="1">
          <mxGeometry width="50" height="50" relative="1" as="geometry">
            <mxPoint x="273.5" y="130" as="sourcePoint" />
            <mxPoint x="353.5" y="130" as="targetPoint" />
          </mxGeometry>
        </mxCell>
        <mxCell id="ksUGWsf0ZPR4c5a9Apki-21" value="&lt;div style=&quot;font-size: 15px;&quot;&gt;&lt;b style=&quot;font-size: 15px;&quot;&gt;&lt;font style=&quot;font-size: 15px;&quot;&gt;Operations&lt;/font&gt;&lt;/b&gt;&lt;/div&gt;" style="rounded=1;whiteSpace=wrap;html=1;align=right;fontSize=15;" parent="1" vertex="1">
          <mxGeometry x="193.5" y="420" width="1070" height="180" as="geometry" />
        </mxCell>
        <mxCell id="ksUGWsf0ZPR4c5a9Apki-17" value="Liquidity Mining Operations" style="rounded=1;whiteSpace=wrap;html=1;align=center;verticalAlign=top;fontSize=15;" parent="1" vertex="1">
          <mxGeometry x="223.5" y="450" width="290" height="120" as="geometry" />
        </mxCell>
        <mxCell id="ksUGWsf0ZPR4c5a9Apki-19" value="" style="endArrow=classic;html=1;rounded=0;entryX=0;entryY=0.5;entryDx=0;entryDy=0;exitX=1;exitY=0.5;exitDx=0;exitDy=0;strokeWidth=3;fontSize=15;" parent="1" source="ksUGWsf0ZPR4c5a9Apki-20" target="ksUGWsf0ZPR4c5a9Apki-6" edge="1">
          <mxGeometry width="50" height="50" relative="1" as="geometry">
            <mxPoint x="373.5" y="480" as="sourcePoint" />
            <mxPoint x="513.5" y="200" as="targetPoint" />
          </mxGeometry>
        </mxCell>
        <mxCell id="ksUGWsf0ZPR4c5a9Apki-20" value="Founders are controlled via governance to transfer funds of Multisig-Safe, Private Funding Wallets of Founders are Keyholders for Treasury-Safes" style="rounded=1;whiteSpace=wrap;html=1;fontSize=15;" parent="1" vertex="1">
          <mxGeometry x="-6.5" y="240.25" width="210" height="122.75" as="geometry" />
        </mxCell>
        <mxCell id="ksUGWsf0ZPR4c5a9Apki-22" value="Operational Hot-Wallet Member#1" style="rounded=1;whiteSpace=wrap;html=1;fontSize=15;" parent="1" vertex="1">
          <mxGeometry x="243.5" y="490" width="120" height="60" as="geometry" />
        </mxCell>
        <mxCell id="ksUGWsf0ZPR4c5a9Apki-23" value="" style="endArrow=classic;startArrow=none;html=1;rounded=0;entryX=0.5;entryY=0;entryDx=0;entryDy=0;exitX=0.5;exitY=1;exitDx=0;exitDy=0;strokeWidth=3;strokeColor=#00FF00;startFill=0;fontSize=15;" parent="1" source="ksUGWsf0ZPR4c5a9Apki-4" target="ksUGWsf0ZPR4c5a9Apki-22" edge="1">
          <mxGeometry width="50" height="50" relative="1" as="geometry">
            <mxPoint x="403.4999999999998" y="160" as="sourcePoint" />
            <mxPoint x="373.4999999999998" y="270" as="targetPoint" />
          </mxGeometry>
        </mxCell>
        <mxCell id="ksUGWsf0ZPR4c5a9Apki-28" value="NFTs Trading Operations" style="rounded=1;whiteSpace=wrap;html=1;align=center;verticalAlign=top;fontSize=15;" parent="1" vertex="1">
          <mxGeometry x="543.5" y="450" width="290" height="120" as="geometry" />
        </mxCell>
        <mxCell id="ksUGWsf0ZPR4c5a9Apki-29" value="Operational Hot-Wallet Member#2" style="rounded=1;whiteSpace=wrap;html=1;fontSize=15;" parent="1" vertex="1">
          <mxGeometry x="558.5" y="490" width="120" height="60" as="geometry" />
        </mxCell>
        <mxCell id="ksUGWsf0ZPR4c5a9Apki-30" value="" style="endArrow=classic;startArrow=none;html=1;rounded=0;entryX=0.5;entryY=0;entryDx=0;entryDy=0;exitX=0.5;exitY=1;exitDx=0;exitDy=0;strokeWidth=3;strokeColor=#0000FF;startFill=0;fontSize=15;" parent="1" source="ksUGWsf0ZPR4c5a9Apki-3" target="ksUGWsf0ZPR4c5a9Apki-29" edge="1">
          <mxGeometry width="50" height="50" relative="1" as="geometry">
            <mxPoint x="713.5" y="330" as="sourcePoint" />
            <mxPoint x="363.4999999999998" y="510" as="targetPoint" />
          </mxGeometry>
        </mxCell>
        <mxCell id="ksUGWsf0ZPR4c5a9Apki-31" value="Operational Hot-Wallet of #y" style="rounded=1;whiteSpace=wrap;html=1;fontSize=15;" parent="1" vertex="1">
          <mxGeometry x="693.5" y="490" width="120" height="60" as="geometry" />
        </mxCell>
        <mxCell id="ksUGWsf0ZPR4c5a9Apki-33" value="EOY Financials 2023:&lt;br&gt;&lt;br&gt;- Still to be voted via governance proposal, maybe all profits stay within treasury?&lt;br&gt;- We might want investors that do not take part in the governance process or in the operations. Investors however get their share of the profits." style="rounded=1;whiteSpace=wrap;html=1;fontSize=15;fontColor=#050505;verticalAlign=top;align=left;" parent="1" vertex="1">
          <mxGeometry x="473.5" y="650" width="510" height="170" as="geometry" />
        </mxCell>
        <mxCell id="ksUGWsf0ZPR4c5a9Apki-34" value="" style="endArrow=none;startArrow=classic;html=1;rounded=0;strokeWidth=3;strokeColor=#FF0000;endFill=0;exitX=0.5;exitY=0;exitDx=0;exitDy=0;entryX=0.5;entryY=1;entryDx=0;entryDy=0;fontSize=15;" parent="1" source="ksUGWsf0ZPR4c5a9Apki-33" target="ksUGWsf0ZPR4c5a9Apki-21" edge="1">
          <mxGeometry width="50" height="50" relative="1" as="geometry">
            <mxPoint x="623.5" y="630" as="sourcePoint" />
            <mxPoint x="933.5" y="510" as="targetPoint" />
          </mxGeometry>
        </mxCell>
        <mxCell id="ksUGWsf0ZPR4c5a9Apki-43" value="DAO-Governance; 1 Vote per Memeber" style="rounded=1;whiteSpace=wrap;html=1;fontSize=15;fontColor=#050505;" parent="1" vertex="1">
          <mxGeometry x="16.75" width="163.5" height="60" as="geometry" />
        </mxCell>
        <mxCell id="ksUGWsf0ZPR4c5a9Apki-47" value="" style="endArrow=none;dashed=1;html=1;rounded=0;strokeColor=#000000;strokeWidth=3;fontSize=15;fontColor=#050505;" parent="1" edge="1">
          <mxGeometry width="50" height="50" relative="1" as="geometry">
            <mxPoint x="189.5" y="160" as="sourcePoint" />
            <mxPoint x="-10.5" y="160" as="targetPoint" />
          </mxGeometry>
        </mxCell>
        <mxCell id="ksUGWsf0ZPR4c5a9Apki-48" value="" style="endArrow=none;dashed=1;html=1;rounded=0;strokeColor=#000000;strokeWidth=3;fontSize=15;fontColor=#050505;" parent="1" edge="1">
          <mxGeometry width="50" height="50" relative="1" as="geometry">
            <mxPoint x="189.5" y="120" as="sourcePoint" />
            <mxPoint x="-10.5" y="120" as="targetPoint" />
          </mxGeometry>
        </mxCell>
        <mxCell id="ksUGWsf0ZPR4c5a9Apki-50" value="" style="endArrow=classic;html=1;rounded=0;strokeColor=#000000;strokeWidth=3;fontSize=15;fontColor=#050505;exitX=0.5;exitY=1;exitDx=0;exitDy=0;" parent="1" source="ksUGWsf0ZPR4c5a9Apki-43" edge="1">
          <mxGeometry width="50" height="50" relative="1" as="geometry">
            <mxPoint x="479.5" y="-30" as="sourcePoint" />
            <mxPoint x="99.5" y="120" as="targetPoint" />
          </mxGeometry>
        </mxCell>
        <mxCell id="ksUGWsf0ZPR4c5a9Apki-51" value="" style="endArrow=none;dashed=1;html=1;dashPattern=1 3;strokeWidth=2;rounded=0;strokeColor=#0000FF;fontSize=15;fontColor=#050505;" parent="1" edge="1">
          <mxGeometry width="50" height="50" relative="1" as="geometry">
            <mxPoint x="303.5" y="260" as="sourcePoint" />
            <mxPoint x="353.5" y="210" as="targetPoint" />
          </mxGeometry>
        </mxCell>
        <mxCell id="ksUGWsf0ZPR4c5a9Apki-53" value="Airgaped Trust" style="rounded=1;whiteSpace=wrap;html=1;fontSize=15;" parent="1" vertex="1">
          <mxGeometry x="39.5" y="130" width="120" height="18.5" as="geometry" />
        </mxCell>
        <mxCell id="yzgCBwjG9V1qT73Nef4H-2" value="Smart-Contracts do not execute transfer of funds, its the founders that act upon behalf of the DAO" style="rounded=0;whiteSpace=wrap;html=1;fontSize=15;" parent="1" vertex="1">
          <mxGeometry x="-270" y="104.25" width="240" height="65.75" as="geometry" />
        </mxCell>
        <mxCell id="yzgCBwjG9V1qT73Nef4H-3" value="" style="endArrow=classic;html=1;rounded=0;strokeColor=#000000;strokeWidth=3;fontSize=15;fontColor=#050505;entryX=0.5;entryY=0;entryDx=0;entryDy=0;" parent="1" target="ksUGWsf0ZPR4c5a9Apki-20" edge="1">
          <mxGeometry width="50" height="50" relative="1" as="geometry">
            <mxPoint x="98.5" y="160" as="sourcePoint" />
            <mxPoint x="109.5" y="130" as="targetPoint" />
          </mxGeometry>
        </mxCell>
        <mxCell id="yzgCBwjG9V1qT73Nef4H-4" value="KYCed&amp;nbsp;Private Funding Wallet Founder/Member#3" style="rounded=1;whiteSpace=wrap;html=1;fontSize=15;" parent="1" vertex="1">
          <mxGeometry x="673.5" y="114.25" width="186.5" height="60" as="geometry" />
        </mxCell>
        <mxCell id="yzgCBwjG9V1qT73Nef4H-5" value="KYCed&amp;nbsp;Private Funding Wallet Member#xyz" style="rounded=1;whiteSpace=wrap;html=1;fontSize=15;" parent="1" vertex="1">
          <mxGeometry x="893.5" y="114.25" width="186.5" height="60" as="geometry" />
        </mxCell>
        <mxCell id="yzgCBwjG9V1qT73Nef4H-6" value="Operational Hot-Wallet Member#x" style="rounded=1;whiteSpace=wrap;html=1;fontSize=15;" parent="1" vertex="1">
          <mxGeometry x="376.5" y="490" width="120" height="60" as="geometry" />
        </mxCell>
        <mxCell id="yzgCBwjG9V1qT73Nef4H-7" value="NFT Gaming Operations" style="rounded=1;whiteSpace=wrap;html=1;align=center;verticalAlign=top;fontSize=15;" parent="1" vertex="1">
          <mxGeometry x="863.5" y="450" width="290" height="120" as="geometry" />
        </mxCell>
        <mxCell id="yzgCBwjG9V1qT73Nef4H-8" value="Operational Hot-Wallet of #z" style="rounded=1;whiteSpace=wrap;html=1;fontSize=15;" parent="1" vertex="1">
          <mxGeometry x="944.5" y="490" width="120" height="60" as="geometry" />
        </mxCell>
        <mxCell id="yzgCBwjG9V1qT73Nef4H-9" value="" style="endArrow=classic;html=1;rounded=0;strokeColor=#000000;strokeWidth=1;fontSize=15;fontColor=#050505;entryX=0.5;entryY=0;entryDx=0;entryDy=0;exitX=0.5;exitY=1;exitDx=0;exitDy=0;" parent="1" source="yzgCBwjG9V1qT73Nef4H-4" target="ksUGWsf0ZPR4c5a9Apki-5" edge="1">
          <mxGeometry width="50" height="50" relative="1" as="geometry">
            <mxPoint x="108.5" y="170" as="sourcePoint" />
            <mxPoint x="108.5" y="267.25" as="targetPoint" />
          </mxGeometry>
        </mxCell>
        <mxCell id="yzgCBwjG9V1qT73Nef4H-10" value="" style="endArrow=classic;html=1;rounded=0;strokeColor=#000000;strokeWidth=1;fontSize=15;fontColor=#050505;entryX=0.5;entryY=0;entryDx=0;entryDy=0;exitX=0.5;exitY=1;exitDx=0;exitDy=0;" parent="1" source="yzgCBwjG9V1qT73Nef4H-5" target="ksUGWsf0ZPR4c5a9Apki-3" edge="1">
          <mxGeometry width="50" height="50" relative="1" as="geometry">
            <mxPoint x="118.5" y="180" as="sourcePoint" />
            <mxPoint x="118.5" y="277.25" as="targetPoint" />
          </mxGeometry>
        </mxCell>
        <mxCell id="yzgCBwjG9V1qT73Nef4H-11" value="" style="endArrow=classic;html=1;rounded=0;strokeColor=#000000;strokeWidth=1;fontSize=15;fontColor=#050505;entryX=0.5;entryY=0;entryDx=0;entryDy=0;exitX=0.5;exitY=1;exitDx=0;exitDy=0;" parent="1" source="ksUGWsf0ZPR4c5a9Apki-5" target="yzgCBwjG9V1qT73Nef4H-8" edge="1">
          <mxGeometry width="50" height="50" relative="1" as="geometry">
            <mxPoint x="128.5" y="170" as="sourcePoint" />
            <mxPoint x="128.5" y="267.25" as="targetPoint" />
          </mxGeometry>
        </mxCell>
        <mxCell id="Y0BjRnIpEt8SPluu8uCf-1" value="Founders: Are DAO-Members with the aditional authority to sign transactions from treasury wallets to operational wallets on behalf of the DAO.&lt;br&gt;&lt;br style=&quot;font-size: 15px;&quot;&gt;&lt;div style=&quot;font-size: 15px;&quot;&gt;&lt;span style=&quot;background-color: initial; font-size: 15px;&quot;&gt;Members: Have 1 vote within governance process of the DAO. Members have to KYC and provide an ID and will have to pay taxes on their own behalf, if profits are being payed out via DAO owned wallets to the Private Funding Wallets of Members and Founders.&lt;/span&gt;&lt;/div&gt;&lt;div style=&quot;font-size: 15px;&quot;&gt;&lt;span style=&quot;background-color: initial; font-size: 15px;&quot;&gt;&lt;br&gt;&lt;/span&gt;&lt;/div&gt;&lt;div style=&quot;font-size: 15px;&quot;&gt;A Member has to be invited via the DAO governance and has to fund the treasury with Matic or Eth tokens worth 230Matic.&lt;/div&gt;" style="rounded=0;whiteSpace=wrap;html=1;align=left;fontSize=15;verticalAlign=top;fontStyle=1;fontColor=#FF6666;" parent="1" vertex="1">
          <mxGeometry x="1020" y="200" width="620" height="200" as="geometry" />
        </mxCell>
      </root>
    </mxGraphModel>
  </diagram>
  <diagram id="h8ff9XndPLmboOOTSbcn" name="V1.1">
    <mxGraphModel dx="1863" dy="614" grid="1" gridSize="10" guides="1" tooltips="1" connect="1" arrows="1" fold="1" page="1" pageScale="1" pageWidth="827" pageHeight="1169" math="0" shadow="0">
      <root>
        <mxCell id="0" />
        <mxCell id="1" parent="0" />
        <mxCell id="76cYOGqHApLL8cCiKRmP-1" value="&lt;div style=&quot;font-size: 15px;&quot;&gt;&lt;b style=&quot;font-size: 15px;&quot;&gt;&lt;font style=&quot;font-size: 15px;&quot;&gt;DAO-Treasury&lt;/font&gt;&lt;/b&gt;&lt;/div&gt;" style="rounded=1;whiteSpace=wrap;html=1;align=center;fontSize=15;verticalAlign=top;" parent="1" vertex="1">
          <mxGeometry x="300" y="240" width="470" height="120" as="geometry" />
        </mxCell>
        <mxCell id="76cYOGqHApLL8cCiKRmP-2" value="KYCed Private Funding Wallets of Members and Founders" style="rounded=1;whiteSpace=wrap;html=1;fontSize=15;" parent="1" vertex="1">
          <mxGeometry x="333" y="114.25" width="186.5" height="60" as="geometry" />
        </mxCell>
        <mxCell id="76cYOGqHApLL8cCiKRmP-3" value="KYCed&amp;nbsp;Private Funding Wallets of Investors" style="rounded=1;whiteSpace=wrap;html=1;fontSize=15;" parent="1" vertex="1">
          <mxGeometry x="560" y="114.25" width="180" height="60" as="geometry" />
        </mxCell>
        <mxCell id="76cYOGqHApLL8cCiKRmP-4" value="Multisig Ethereum Safe" style="rounded=1;whiteSpace=wrap;html=1;fontSize=15;" parent="1" vertex="1">
          <mxGeometry x="466.5" y="271.63" width="120" height="60" as="geometry" />
        </mxCell>
        <mxCell id="76cYOGqHApLL8cCiKRmP-5" value="Multisig Polygon Safe" style="rounded=1;whiteSpace=wrap;html=1;fontSize=15;" parent="1" vertex="1">
          <mxGeometry x="330" y="271.63" width="120" height="60" as="geometry" />
        </mxCell>
        <mxCell id="76cYOGqHApLL8cCiKRmP-6" value="Multisig Cardano Safe" style="rounded=1;whiteSpace=wrap;html=1;fontSize=15;" parent="1" vertex="1">
          <mxGeometry x="610" y="271.63" width="120" height="60" as="geometry" />
        </mxCell>
        <mxCell id="76cYOGqHApLL8cCiKRmP-12" value="" style="endArrow=classic;startArrow=none;html=1;rounded=0;entryX=0.5;entryY=0;entryDx=0;entryDy=0;exitX=0.5;exitY=1;exitDx=0;exitDy=0;strokeColor=#00FF00;strokeWidth=3;startFill=0;fontSize=15;" parent="1" source="76cYOGqHApLL8cCiKRmP-3" target="76cYOGqHApLL8cCiKRmP-1" edge="1">
          <mxGeometry width="50" height="50" relative="1" as="geometry">
            <mxPoint x="273.5" y="130" as="sourcePoint" />
            <mxPoint x="353.5" y="130" as="targetPoint" />
          </mxGeometry>
        </mxCell>
        <mxCell id="76cYOGqHApLL8cCiKRmP-13" value="&lt;div style=&quot;font-size: 15px;&quot;&gt;&lt;b style=&quot;font-size: 15px;&quot;&gt;&lt;font style=&quot;font-size: 15px;&quot;&gt;DAO-Operations&lt;/font&gt;&lt;/b&gt;&lt;/div&gt;" style="rounded=1;whiteSpace=wrap;html=1;align=center;fontSize=15;verticalAlign=top;" parent="1" vertex="1">
          <mxGeometry y="414" width="1070" height="170" as="geometry" />
        </mxCell>
        <mxCell id="76cYOGqHApLL8cCiKRmP-14" value="Liquidity Mining Operations" style="rounded=1;whiteSpace=wrap;html=1;align=center;verticalAlign=top;fontSize=15;" parent="1" vertex="1">
          <mxGeometry x="30" y="444" width="226.5" height="120" as="geometry" />
        </mxCell>
        <mxCell id="76cYOGqHApLL8cCiKRmP-15" value="" style="endArrow=classic;html=1;rounded=0;entryX=0;entryY=0.5;entryDx=0;entryDy=0;exitX=1;exitY=0.5;exitDx=0;exitDy=0;strokeWidth=3;fontSize=15;" parent="1" source="76cYOGqHApLL8cCiKRmP-16" target="76cYOGqHApLL8cCiKRmP-1" edge="1">
          <mxGeometry width="50" height="50" relative="1" as="geometry">
            <mxPoint x="373.5" y="480" as="sourcePoint" />
            <mxPoint x="513.5" y="200" as="targetPoint" />
          </mxGeometry>
        </mxCell>
        <mxCell id="76cYOGqHApLL8cCiKRmP-16" value="Founders are controlled via governance to transfer funds of Multisig-Safe, Private Funding Wallets of Founders are Keyholders for Treasury-Safes" style="rounded=1;whiteSpace=wrap;html=1;fontSize=15;" parent="1" vertex="1">
          <mxGeometry x="-6.5" y="240.25" width="210" height="122.75" as="geometry" />
        </mxCell>
        <mxCell id="76cYOGqHApLL8cCiKRmP-17" value="Operational Hot-Wallets controlled by Operators" style="rounded=1;whiteSpace=wrap;html=1;fontSize=15;" parent="1" vertex="1">
          <mxGeometry x="50" y="484" width="186.5" height="60" as="geometry" />
        </mxCell>
        <mxCell id="76cYOGqHApLL8cCiKRmP-19" value="NFTs Operations" style="rounded=1;whiteSpace=wrap;html=1;align=center;verticalAlign=top;fontSize=15;" parent="1" vertex="1">
          <mxGeometry x="286.5" y="444" width="230" height="120" as="geometry" />
        </mxCell>
        <mxCell id="76cYOGqHApLL8cCiKRmP-23" value="&lt;div style=&quot;text-align: center;&quot;&gt;&lt;b style=&quot;background-color: initial;&quot;&gt;EOY Financials 2023&lt;/b&gt;&lt;/div&gt;&lt;div style=&quot;text-align: center;&quot;&gt;&lt;br&gt;&lt;/div&gt;Option #1: Profits stay within DAO-Treasury and DAO-Operations Wallets&lt;br&gt;Option #2: Profits payed out to Funding-Wallets&lt;br&gt;&lt;br&gt;Outcome will be decided by DAO-Governance of Members" style="rounded=1;whiteSpace=wrap;html=1;fontSize=15;fontColor=#050505;verticalAlign=top;align=left;" parent="1" vertex="1">
          <mxGeometry x="280" y="630" width="510" height="120" as="geometry" />
        </mxCell>
        <mxCell id="76cYOGqHApLL8cCiKRmP-24" value="" style="endArrow=none;startArrow=classic;html=1;rounded=0;strokeWidth=3;strokeColor=#FF0000;endFill=0;exitX=0.5;exitY=0;exitDx=0;exitDy=0;entryX=0.5;entryY=1;entryDx=0;entryDy=0;fontSize=15;fontColor=#00FF00;" parent="1" source="76cYOGqHApLL8cCiKRmP-23" target="76cYOGqHApLL8cCiKRmP-13" edge="1">
          <mxGeometry width="50" height="50" relative="1" as="geometry">
            <mxPoint x="623.5" y="630" as="sourcePoint" />
            <mxPoint x="933.5" y="510" as="targetPoint" />
          </mxGeometry>
        </mxCell>
        <mxCell id="76cYOGqHApLL8cCiKRmP-25" value="DAO-Governance; 1 Vote per Memeber" style="rounded=1;whiteSpace=wrap;html=1;fontSize=15;fontColor=#050505;" parent="1" vertex="1">
          <mxGeometry x="16.75" y="49.51" width="163.5" height="60" as="geometry" />
        </mxCell>
        <mxCell id="76cYOGqHApLL8cCiKRmP-26" value="" style="endArrow=none;dashed=1;html=1;rounded=0;strokeColor=#000000;strokeWidth=3;fontSize=15;fontColor=#050505;" parent="1" edge="1">
          <mxGeometry width="50" height="50" relative="1" as="geometry">
            <mxPoint x="189.5" y="189.51" as="sourcePoint" />
            <mxPoint x="-10.5" y="189.51" as="targetPoint" />
          </mxGeometry>
        </mxCell>
        <mxCell id="76cYOGqHApLL8cCiKRmP-27" value="" style="endArrow=none;dashed=1;html=1;rounded=0;strokeColor=#000000;strokeWidth=3;fontSize=15;fontColor=#050505;" parent="1" edge="1">
          <mxGeometry width="50" height="50" relative="1" as="geometry">
            <mxPoint x="189.5" y="149.51" as="sourcePoint" />
            <mxPoint x="-10.5" y="149.51" as="targetPoint" />
          </mxGeometry>
        </mxCell>
        <mxCell id="76cYOGqHApLL8cCiKRmP-28" value="" style="endArrow=classic;html=1;rounded=0;strokeColor=#000000;strokeWidth=3;fontSize=15;fontColor=#050505;exitX=0.5;exitY=1;exitDx=0;exitDy=0;" parent="1" source="76cYOGqHApLL8cCiKRmP-25" edge="1">
          <mxGeometry width="50" height="50" relative="1" as="geometry">
            <mxPoint x="479.5" y="-0.4900000000000002" as="sourcePoint" />
            <mxPoint x="99.5" y="149.51" as="targetPoint" />
          </mxGeometry>
        </mxCell>
        <mxCell id="76cYOGqHApLL8cCiKRmP-30" value="Airgaped Trust" style="rounded=1;whiteSpace=wrap;html=1;fontSize=15;" parent="1" vertex="1">
          <mxGeometry x="39.5" y="159.51" width="120" height="18.5" as="geometry" />
        </mxCell>
        <mxCell id="76cYOGqHApLL8cCiKRmP-32" value="" style="endArrow=classic;html=1;rounded=0;strokeColor=#000000;strokeWidth=3;fontSize=15;fontColor=#050505;entryX=0.5;entryY=0;entryDx=0;entryDy=0;" parent="1" target="76cYOGqHApLL8cCiKRmP-16" edge="1">
          <mxGeometry width="50" height="50" relative="1" as="geometry">
            <mxPoint x="99" y="190" as="sourcePoint" />
            <mxPoint x="109.5" y="130" as="targetPoint" />
          </mxGeometry>
        </mxCell>
        <mxCell id="76cYOGqHApLL8cCiKRmP-36" value="NFT Gaming Operations" style="rounded=1;whiteSpace=wrap;html=1;align=center;verticalAlign=top;fontSize=15;" parent="1" vertex="1">
          <mxGeometry x="546.5" y="444" width="230" height="120" as="geometry" />
        </mxCell>
        <mxCell id="76cYOGqHApLL8cCiKRmP-42" value="" style="endArrow=classic;startArrow=none;html=1;rounded=0;exitX=0.5;exitY=1;exitDx=0;exitDy=0;strokeColor=#00FF00;strokeWidth=3;startFill=0;fontSize=15;entryX=0.5;entryY=0;entryDx=0;entryDy=0;" parent="1" source="76cYOGqHApLL8cCiKRmP-2" target="76cYOGqHApLL8cCiKRmP-1" edge="1">
          <mxGeometry width="50" height="50" relative="1" as="geometry">
            <mxPoint x="753.4999999999995" y="184.25" as="sourcePoint" />
            <mxPoint x="580" y="220" as="targetPoint" />
          </mxGeometry>
        </mxCell>
        <mxCell id="76cYOGqHApLL8cCiKRmP-44" value="Operational Hot-Wallets controlled by Operators" style="rounded=1;whiteSpace=wrap;html=1;fontSize=15;" parent="1" vertex="1">
          <mxGeometry x="306.5" y="484" width="186.5" height="60" as="geometry" />
        </mxCell>
        <mxCell id="76cYOGqHApLL8cCiKRmP-45" value="Operational Hot-Wallets controlled by Operators" style="rounded=1;whiteSpace=wrap;html=1;fontSize=15;" parent="1" vertex="1">
          <mxGeometry x="566.5" y="484" width="186.5" height="60" as="geometry" />
        </mxCell>
        <mxCell id="76cYOGqHApLL8cCiKRmP-46" value="Native Staking Operations" style="rounded=1;whiteSpace=wrap;html=1;align=center;verticalAlign=top;fontSize=15;" parent="1" vertex="1">
          <mxGeometry x="806.5" y="444" width="230" height="120" as="geometry" />
        </mxCell>
        <mxCell id="76cYOGqHApLL8cCiKRmP-47" value="Operational Hot-Wallets controlled by Operators" style="rounded=1;whiteSpace=wrap;html=1;fontSize=15;" parent="1" vertex="1">
          <mxGeometry x="826.5" y="484" width="186.5" height="60" as="geometry" />
        </mxCell>
        <mxCell id="76cYOGqHApLL8cCiKRmP-48" value="KYCed Private Funding Wallet of Members and Founders" style="rounded=1;whiteSpace=wrap;html=1;fontSize=15;" parent="1" vertex="1">
          <mxGeometry x="280" y="800" width="186.5" height="60" as="geometry" />
        </mxCell>
        <mxCell id="76cYOGqHApLL8cCiKRmP-49" value="KYCed&amp;nbsp;Private Funding Wallet of Investors" style="rounded=1;whiteSpace=wrap;html=1;fontSize=15;" parent="1" vertex="1">
          <mxGeometry x="623.5" y="800" width="180" height="60" as="geometry" />
        </mxCell>
        <mxCell id="76cYOGqHApLL8cCiKRmP-51" value="" style="endArrow=none;startArrow=classic;html=1;rounded=0;strokeWidth=3;strokeColor=#FF0000;endFill=0;exitX=0.5;exitY=0;exitDx=0;exitDy=0;entryX=0.5;entryY=1;entryDx=0;entryDy=0;fontSize=15;" parent="1" source="76cYOGqHApLL8cCiKRmP-48" target="76cYOGqHApLL8cCiKRmP-23" edge="1">
          <mxGeometry width="50" height="50" relative="1" as="geometry">
            <mxPoint x="791.75" y="670" as="sourcePoint" />
            <mxPoint x="791.75" y="610" as="targetPoint" />
          </mxGeometry>
        </mxCell>
        <mxCell id="76cYOGqHApLL8cCiKRmP-56" value="Profit" style="edgeLabel;html=1;align=center;verticalAlign=middle;resizable=0;points=[];fontSize=14;" parent="76cYOGqHApLL8cCiKRmP-51" vertex="1" connectable="0">
          <mxGeometry x="0.2166" y="3" relative="1" as="geometry">
            <mxPoint x="-4" y="3" as="offset" />
          </mxGeometry>
        </mxCell>
        <mxCell id="76cYOGqHApLL8cCiKRmP-52" value="" style="endArrow=none;startArrow=classic;html=1;rounded=0;strokeWidth=3;strokeColor=#FF0000;endFill=0;exitX=0.5;exitY=0;exitDx=0;exitDy=0;entryX=0.5;entryY=1;entryDx=0;entryDy=0;fontSize=15;" parent="1" source="76cYOGqHApLL8cCiKRmP-49" target="76cYOGqHApLL8cCiKRmP-23" edge="1">
          <mxGeometry width="50" height="50" relative="1" as="geometry">
            <mxPoint x="801.75" y="680" as="sourcePoint" />
            <mxPoint x="801.75" y="620" as="targetPoint" />
          </mxGeometry>
        </mxCell>
        <mxCell id="76cYOGqHApLL8cCiKRmP-57" value="Profit" style="edgeLabel;html=1;align=center;verticalAlign=middle;resizable=0;points=[];fontSize=14;" parent="76cYOGqHApLL8cCiKRmP-52" vertex="1" connectable="0">
          <mxGeometry x="0.1908" y="1" relative="1" as="geometry">
            <mxPoint y="1" as="offset" />
          </mxGeometry>
        </mxCell>
        <mxCell id="76cYOGqHApLL8cCiKRmP-54" value="Taxes payed by each Member on own behalf" style="rounded=1;whiteSpace=wrap;html=1;fontSize=15;" parent="1" vertex="1">
          <mxGeometry x="50" y="800" width="186.5" height="60" as="geometry" />
        </mxCell>
        <mxCell id="76cYOGqHApLL8cCiKRmP-55" value="Taxes payed by each Investor on own behalf" style="rounded=1;whiteSpace=wrap;html=1;fontSize=15;" parent="1" vertex="1">
          <mxGeometry x="846.5" y="800" width="186.5" height="60" as="geometry" />
        </mxCell>
        <mxCell id="76cYOGqHApLL8cCiKRmP-58" value="" style="endArrow=classic;startArrow=none;html=1;rounded=0;entryX=0.5;entryY=0;entryDx=0;entryDy=0;exitX=0.5;exitY=1;exitDx=0;exitDy=0;strokeColor=#00FF00;strokeWidth=3;startFill=0;fontSize=15;" parent="1" source="76cYOGqHApLL8cCiKRmP-1" target="76cYOGqHApLL8cCiKRmP-13" edge="1">
          <mxGeometry width="50" height="50" relative="1" as="geometry">
            <mxPoint x="723.4999999999995" y="184.25" as="sourcePoint" />
            <mxPoint x="588.25" y="230.13" as="targetPoint" />
          </mxGeometry>
        </mxCell>
        <mxCell id="76cYOGqHApLL8cCiKRmP-62" value="" style="endArrow=none;startArrow=classic;html=1;rounded=0;strokeWidth=3;strokeColor=#FF0000;endFill=0;exitX=1;exitY=0.5;exitDx=0;exitDy=0;entryX=0;entryY=0.5;entryDx=0;entryDy=0;fontSize=15;" parent="1" source="76cYOGqHApLL8cCiKRmP-54" target="76cYOGqHApLL8cCiKRmP-48" edge="1">
          <mxGeometry width="50" height="50" relative="1" as="geometry">
            <mxPoint x="545" y="640" as="sourcePoint" />
            <mxPoint x="545" y="594" as="targetPoint" />
          </mxGeometry>
        </mxCell>
        <mxCell id="76cYOGqHApLL8cCiKRmP-63" value="" style="endArrow=none;startArrow=classic;html=1;rounded=0;strokeWidth=3;strokeColor=#FF0000;endFill=0;exitX=0;exitY=0.5;exitDx=0;exitDy=0;entryX=1;entryY=0.5;entryDx=0;entryDy=0;fontSize=15;" parent="1" source="76cYOGqHApLL8cCiKRmP-55" target="76cYOGqHApLL8cCiKRmP-49" edge="1">
          <mxGeometry width="50" height="50" relative="1" as="geometry">
            <mxPoint x="246.5" y="840" as="sourcePoint" />
            <mxPoint x="290" y="840" as="targetPoint" />
          </mxGeometry>
        </mxCell>
        <mxCell id="76cYOGqHApLL8cCiKRmP-64" value="Smart-Contracts do not execute transfer of funds, its the founders that act upon behalf of the DAO" style="rounded=1;whiteSpace=wrap;html=1;fontSize=15;fontColor=#050505;" parent="1" vertex="1">
          <mxGeometry x="-220" y="130" width="193.5" height="78.37" as="geometry" />
        </mxCell>
        <mxCell id="76cYOGqHApLL8cCiKRmP-65" value="Founders: &lt;span style=&quot;font-weight: normal;&quot;&gt;Are DAO-Members with the aditional authority to sign transactions from treasury wallets to operational wallets on behalf of the DAO.&lt;/span&gt;&lt;br style=&quot;border-color: var(--border-color); font-size: 15px;&quot;&gt;&lt;br style=&quot;border-color: var(--border-color); font-size: 15px;&quot;&gt;&lt;div style=&quot;border-color: var(--border-color); font-size: 15px;&quot;&gt;&lt;span style=&quot;border-color: var(--border-color); background-color: initial; font-size: 15px;&quot;&gt;Members: &lt;span style=&quot;font-weight: normal;&quot;&gt;Have 1 vote within governance process of the DAO. Members have to KYC and provide an ID and will have to pay taxes on their own behalf, if profits are being payed out via DAO owned wallets to the Private Funding Wallets of Members and Founders.&lt;/span&gt;&lt;/span&gt;&lt;/div&gt;&lt;div style=&quot;border-color: var(--border-color); font-size: 15px;&quot;&gt;&lt;span style=&quot;border-color: var(--border-color); background-color: initial; font-size: 15px; font-weight: normal;&quot;&gt;&lt;br&gt;&lt;/span&gt;&lt;/div&gt;&lt;div style=&quot;border-color: var(--border-color); font-size: 15px;&quot;&gt;&lt;span style=&quot;border-color: var(--border-color); background-color: initial; font-size: 15px; font-weight: normal;&quot;&gt;A Member has to be invited via the DAO governance and has to fund the treasury with Matic or Eth tokens worth 230Matic.&lt;br&gt;&lt;/span&gt;&lt;/div&gt;&lt;div style=&quot;border-color: var(--border-color); font-size: 15px;&quot;&gt;&lt;span style=&quot;border-color: var(--border-color); background-color: initial; font-size: 15px;&quot;&gt;&lt;br style=&quot;border-color: var(--border-color); font-size: 15px;&quot;&gt;&lt;/span&gt;&lt;/div&gt;&lt;div style=&quot;border-color: var(--border-color); font-size: 15px;&quot;&gt;&lt;span style=&quot;border-color: var(--border-color); background-color: initial; font-size: 15px;&quot;&gt;Operators: &lt;span style=&quot;font-weight: normal;&quot;&gt;Are Members that take control of a single operational Hot-Wallet =&amp;gt; Operators hold the private keys, not the DAO!&lt;/span&gt;&lt;/span&gt;&lt;/div&gt;&lt;div style=&quot;border-color: var(--border-color); font-size: 15px;&quot;&gt;&lt;span style=&quot;border-color: var(--border-color); background-color: initial; font-size: 15px;&quot;&gt;&lt;span style=&quot;font-weight: normal;&quot;&gt;&lt;br&gt;&lt;/span&gt;&lt;/span&gt;&lt;/div&gt;&lt;div style=&quot;border-color: var(--border-color); font-size: 15px;&quot;&gt;&lt;span style=&quot;border-color: var(--border-color); background-color: initial; font-size: 15px;&quot;&gt;Investors:&lt;span style=&quot;font-weight: 400;&quot;&gt;&amp;nbsp;Investors dont participate within the DAO actively, but want to join only to participate on the profits. Investors only get 75% of the profits payed out EOY compared to the payout of members.&lt;/span&gt;&lt;/span&gt;&lt;/div&gt;&lt;div style=&quot;border-color: var(--border-color); font-size: 15px;&quot;&gt;&lt;span style=&quot;border-color: var(--border-color); background-color: initial; font-size: 15px;&quot;&gt;&lt;br&gt;&lt;/span&gt;&lt;/div&gt;&lt;div style=&quot;border-color: var(--border-color); font-size: 15px;&quot;&gt;&lt;br&gt;&lt;/div&gt;" style="rounded=1;whiteSpace=wrap;html=1;fontSize=15;align=left;fontColor=#FF0000;fontStyle=1" parent="1" vertex="1">
          <mxGeometry x="806.5" y="40" width="583.5" height="320" as="geometry" />
        </mxCell>
      </root>
    </mxGraphModel>
  </diagram>
  <diagram id="tRvfZeMiKRNkf8-mLVkh" name="V1.2">
    <mxGraphModel dx="1863" dy="614" grid="1" gridSize="10" guides="1" tooltips="1" connect="1" arrows="1" fold="1" page="1" pageScale="1" pageWidth="827" pageHeight="1169" math="0" shadow="0">
      <root>
        <mxCell id="0" />
        <mxCell id="1" parent="0" />
        <mxCell id="FZY7Oqexer8E_CtcWSiL-49" value="&lt;b&gt;&lt;u&gt;Explanetory Contexts&lt;/u&gt;&lt;/b&gt;" style="rounded=0;whiteSpace=wrap;html=1;align=center;verticalAlign=top;fontSize=15;" parent="1" vertex="1">
          <mxGeometry x="830" y="7" width="570" height="380" as="geometry" />
        </mxCell>
        <mxCell id="FZY7Oqexer8E_CtcWSiL-1" value="&lt;div style=&quot;font-size: 15px;&quot;&gt;&lt;b style=&quot;font-size: 15px;&quot;&gt;&lt;font style=&quot;font-size: 15px;&quot;&gt;DAO-Treasury&lt;/font&gt;&lt;/b&gt;&lt;/div&gt;" style="rounded=1;whiteSpace=wrap;html=1;align=center;fontSize=15;verticalAlign=top;" parent="1" vertex="1">
          <mxGeometry x="310" y="240" width="450" height="120" as="geometry" />
        </mxCell>
        <mxCell id="FZY7Oqexer8E_CtcWSiL-2" value="Doxxed Private Funding Wallets of Members and Founders" style="rounded=1;whiteSpace=wrap;html=1;fontSize=15;fillColor=#00FF00;" parent="1" vertex="1">
          <mxGeometry x="441.75" y="98.37" width="186.5" height="60" as="geometry" />
        </mxCell>
        <mxCell id="FZY7Oqexer8E_CtcWSiL-4" value="Multisig Ethereum Safe" style="rounded=1;whiteSpace=wrap;html=1;fontSize=15;fillColor=#B266FF;" parent="1" vertex="1">
          <mxGeometry x="476.5" y="271.63" width="120" height="60" as="geometry" />
        </mxCell>
        <mxCell id="FZY7Oqexer8E_CtcWSiL-5" value="Multisig Polygon Safe" style="rounded=1;whiteSpace=wrap;html=1;fontSize=15;fillColor=#00FF00;" parent="1" vertex="1">
          <mxGeometry x="340" y="271.63" width="120" height="60" as="geometry" />
        </mxCell>
        <mxCell id="FZY7Oqexer8E_CtcWSiL-6" value="Multisig Cardano Safe" style="rounded=1;whiteSpace=wrap;html=1;fontSize=15;fillColor=#FFFF00;" parent="1" vertex="1">
          <mxGeometry x="614" y="271.63" width="120" height="60" as="geometry" />
        </mxCell>
        <mxCell id="FZY7Oqexer8E_CtcWSiL-8" value="&lt;div style=&quot;font-size: 15px;&quot;&gt;&lt;b style=&quot;font-size: 15px;&quot;&gt;&lt;font style=&quot;font-size: 15px;&quot;&gt;DAO-Operations&lt;/font&gt;&lt;/b&gt;&lt;/div&gt;" style="rounded=1;whiteSpace=wrap;html=1;align=center;fontSize=15;verticalAlign=top;" parent="1" vertex="1">
          <mxGeometry y="414" width="1070" height="170" as="geometry" />
        </mxCell>
        <mxCell id="FZY7Oqexer8E_CtcWSiL-9" value="Liquidity Mining Operations" style="rounded=1;whiteSpace=wrap;html=1;align=center;verticalAlign=top;fontSize=15;fillColor=#00FF00;" parent="1" vertex="1">
          <mxGeometry x="30" y="444" width="226.5" height="120" as="geometry" />
        </mxCell>
        <mxCell id="FZY7Oqexer8E_CtcWSiL-10" value="" style="endArrow=classic;html=1;rounded=0;entryX=0;entryY=0.5;entryDx=0;entryDy=0;exitX=1;exitY=0.5;exitDx=0;exitDy=0;strokeWidth=3;fontSize=15;" parent="1" source="FZY7Oqexer8E_CtcWSiL-11" target="FZY7Oqexer8E_CtcWSiL-1" edge="1">
          <mxGeometry width="50" height="50" relative="1" as="geometry">
            <mxPoint x="373.5" y="480" as="sourcePoint" />
            <mxPoint x="513.5" y="200" as="targetPoint" />
          </mxGeometry>
        </mxCell>
        <mxCell id="FZY7Oqexer8E_CtcWSiL-11" value="Founders are controlled via the DAO-Governance process to transfer funds of the Multisig-Safe." style="rounded=1;whiteSpace=wrap;html=1;fontSize=15;fillColor=#00FF00;" parent="1" vertex="1">
          <mxGeometry x="-23" y="260.25" width="243.5" height="79.75" as="geometry" />
        </mxCell>
        <mxCell id="FZY7Oqexer8E_CtcWSiL-12" value="Operational Hot-Wallets controlled by Operators" style="rounded=1;whiteSpace=wrap;html=1;fontSize=15;fillColor=#00FF00;" parent="1" vertex="1">
          <mxGeometry x="50" y="484" width="186.5" height="60" as="geometry" />
        </mxCell>
        <mxCell id="FZY7Oqexer8E_CtcWSiL-13" value="NFTs Operations" style="rounded=1;whiteSpace=wrap;html=1;align=center;verticalAlign=top;fontSize=15;fillColor=#B266FF;" parent="1" vertex="1">
          <mxGeometry x="286.5" y="444" width="230" height="120" as="geometry" />
        </mxCell>
        <mxCell id="FZY7Oqexer8E_CtcWSiL-14" value="&lt;div style=&quot;text-align: center;&quot;&gt;&lt;b style=&quot;background-color: initial;&quot;&gt;EOY Financials 2023&lt;/b&gt;&lt;/div&gt;&lt;div style=&quot;text-align: center;&quot;&gt;&lt;br&gt;&lt;/div&gt;Option #1: Profits stay within DAO-Treasury and DAO-Operations Wallets&lt;br&gt;Option #2: Profits payed out to Funding-Wallets&lt;br&gt;&lt;br&gt;Outcome will be decided by DAO-Governance process" style="rounded=1;whiteSpace=wrap;html=1;fontSize=15;fontColor=#050505;verticalAlign=top;align=left;fillColor=#B266FF;" parent="1" vertex="1">
          <mxGeometry x="280" y="630" width="510" height="120" as="geometry" />
        </mxCell>
        <mxCell id="FZY7Oqexer8E_CtcWSiL-15" value="" style="endArrow=none;startArrow=classic;html=1;rounded=0;strokeWidth=3;strokeColor=#FF0000;endFill=0;exitX=0.5;exitY=0;exitDx=0;exitDy=0;entryX=0.5;entryY=1;entryDx=0;entryDy=0;fontSize=15;fontColor=#00FF00;" parent="1" source="FZY7Oqexer8E_CtcWSiL-14" target="FZY7Oqexer8E_CtcWSiL-8" edge="1">
          <mxGeometry width="50" height="50" relative="1" as="geometry">
            <mxPoint x="623.5" y="630" as="sourcePoint" />
            <mxPoint x="933.5" y="510" as="targetPoint" />
          </mxGeometry>
        </mxCell>
        <mxCell id="FZY7Oqexer8E_CtcWSiL-16" value="Member controlled DAO-Governance; 1 Vote per Member" style="rounded=1;whiteSpace=wrap;html=1;fontSize=15;fontColor=#050505;fillColor=#00FF00;" parent="1" vertex="1">
          <mxGeometry x="16.75" y="49.51" width="163.5" height="60" as="geometry" />
        </mxCell>
        <mxCell id="FZY7Oqexer8E_CtcWSiL-17" value="" style="endArrow=none;dashed=1;html=1;rounded=0;strokeColor=#000000;strokeWidth=3;fontSize=15;fontColor=#050505;" parent="1" edge="1">
          <mxGeometry width="50" height="50" relative="1" as="geometry">
            <mxPoint x="189.5" y="189.51" as="sourcePoint" />
            <mxPoint x="-10.5" y="189.51" as="targetPoint" />
          </mxGeometry>
        </mxCell>
        <mxCell id="FZY7Oqexer8E_CtcWSiL-18" value="" style="endArrow=none;dashed=1;html=1;rounded=0;strokeColor=#000000;strokeWidth=3;fontSize=15;fontColor=#050505;" parent="1" edge="1">
          <mxGeometry width="50" height="50" relative="1" as="geometry">
            <mxPoint x="189.5" y="149.51" as="sourcePoint" />
            <mxPoint x="-10.5" y="149.51" as="targetPoint" />
          </mxGeometry>
        </mxCell>
        <mxCell id="FZY7Oqexer8E_CtcWSiL-19" value="" style="endArrow=classic;html=1;rounded=0;strokeColor=#000000;strokeWidth=3;fontSize=15;fontColor=#050505;exitX=0.5;exitY=1;exitDx=0;exitDy=0;" parent="1" source="FZY7Oqexer8E_CtcWSiL-16" edge="1">
          <mxGeometry width="50" height="50" relative="1" as="geometry">
            <mxPoint x="479.5" y="-0.4900000000000002" as="sourcePoint" />
            <mxPoint x="99.5" y="149.51" as="targetPoint" />
          </mxGeometry>
        </mxCell>
        <mxCell id="FZY7Oqexer8E_CtcWSiL-20" value="Airgaped Trust" style="rounded=1;whiteSpace=wrap;html=1;fontSize=15;" parent="1" vertex="1">
          <mxGeometry x="39.5" y="159.51" width="120" height="18.5" as="geometry" />
        </mxCell>
        <mxCell id="FZY7Oqexer8E_CtcWSiL-21" value="" style="endArrow=classic;html=1;rounded=0;strokeColor=#000000;strokeWidth=3;fontSize=15;fontColor=#050505;entryX=0.5;entryY=0;entryDx=0;entryDy=0;" parent="1" target="FZY7Oqexer8E_CtcWSiL-11" edge="1">
          <mxGeometry width="50" height="50" relative="1" as="geometry">
            <mxPoint x="99" y="190" as="sourcePoint" />
            <mxPoint x="109.5" y="130" as="targetPoint" />
          </mxGeometry>
        </mxCell>
        <mxCell id="FZY7Oqexer8E_CtcWSiL-22" value="NFT Gaming Operations" style="rounded=1;whiteSpace=wrap;html=1;align=center;verticalAlign=top;fontSize=15;fillColor=#FFFF00;" parent="1" vertex="1">
          <mxGeometry x="546.5" y="444" width="230" height="120" as="geometry" />
        </mxCell>
        <mxCell id="FZY7Oqexer8E_CtcWSiL-23" value="Transfer of $Matic" style="endArrow=classic;startArrow=none;html=1;rounded=0;exitX=0.5;exitY=1;exitDx=0;exitDy=0;strokeColor=#00FF00;strokeWidth=3;startFill=0;fontSize=15;entryX=0.5;entryY=0;entryDx=0;entryDy=0;" parent="1" source="FZY7Oqexer8E_CtcWSiL-2" target="FZY7Oqexer8E_CtcWSiL-1" edge="1">
          <mxGeometry width="50" height="50" relative="1" as="geometry">
            <mxPoint x="753.4999999999995" y="184.25" as="sourcePoint" />
            <mxPoint x="580" y="220" as="targetPoint" />
          </mxGeometry>
        </mxCell>
        <mxCell id="FZY7Oqexer8E_CtcWSiL-24" value="Operational Hot-Wallets controlled by Operators" style="rounded=1;whiteSpace=wrap;html=1;fontSize=15;fillColor=#B266FF;" parent="1" vertex="1">
          <mxGeometry x="306.5" y="484" width="186.5" height="60" as="geometry" />
        </mxCell>
        <mxCell id="FZY7Oqexer8E_CtcWSiL-25" value="Operational Hot-Wallets controlled by Operators" style="rounded=1;whiteSpace=wrap;html=1;fontSize=15;fillColor=#FFFF00;" parent="1" vertex="1">
          <mxGeometry x="566.5" y="484" width="186.5" height="60" as="geometry" />
        </mxCell>
        <mxCell id="FZY7Oqexer8E_CtcWSiL-26" value="Native Staking Operations" style="rounded=1;whiteSpace=wrap;html=1;align=center;verticalAlign=top;fontSize=15;fillColor=#FFFF00;" parent="1" vertex="1">
          <mxGeometry x="806.5" y="444" width="230" height="120" as="geometry" />
        </mxCell>
        <mxCell id="FZY7Oqexer8E_CtcWSiL-27" value="Operational Hot-Wallets controlled by Operators" style="rounded=1;whiteSpace=wrap;html=1;fontSize=15;fillColor=#FFFF00;" parent="1" vertex="1">
          <mxGeometry x="826.5" y="484" width="186.5" height="60" as="geometry" />
        </mxCell>
        <mxCell id="FZY7Oqexer8E_CtcWSiL-28" value="Doxxed Private Funding Wallet of Members and Founders" style="rounded=1;whiteSpace=wrap;html=1;fontSize=15;fillColor=#FFFF00;" parent="1" vertex="1">
          <mxGeometry x="441.75" y="816" width="186.5" height="60" as="geometry" />
        </mxCell>
        <mxCell id="FZY7Oqexer8E_CtcWSiL-30" value="" style="endArrow=none;startArrow=classic;html=1;rounded=0;strokeWidth=3;strokeColor=#FF0000;endFill=0;exitX=0.5;exitY=0;exitDx=0;exitDy=0;entryX=0.5;entryY=1;entryDx=0;entryDy=0;fontSize=15;" parent="1" source="FZY7Oqexer8E_CtcWSiL-28" target="FZY7Oqexer8E_CtcWSiL-14" edge="1">
          <mxGeometry width="50" height="50" relative="1" as="geometry">
            <mxPoint x="791.75" y="670" as="sourcePoint" />
            <mxPoint x="791.75" y="610" as="targetPoint" />
          </mxGeometry>
        </mxCell>
        <mxCell id="FZY7Oqexer8E_CtcWSiL-31" value="Profit" style="edgeLabel;html=1;align=center;verticalAlign=middle;resizable=0;points=[];fontSize=14;" parent="FZY7Oqexer8E_CtcWSiL-30" vertex="1" connectable="0">
          <mxGeometry x="0.2166" y="3" relative="1" as="geometry">
            <mxPoint x="-4" y="3" as="offset" />
          </mxGeometry>
        </mxCell>
        <mxCell id="FZY7Oqexer8E_CtcWSiL-34" value="Taxes payed by each Member on own behalf." style="rounded=1;whiteSpace=wrap;html=1;fontSize=15;fillColor=#FFFF00;" parent="1" vertex="1">
          <mxGeometry x="190" y="816" width="186.5" height="60" as="geometry" />
        </mxCell>
        <mxCell id="FZY7Oqexer8E_CtcWSiL-36" value="" style="endArrow=classic;startArrow=none;html=1;rounded=0;entryX=0.5;entryY=0;entryDx=0;entryDy=0;exitX=0.5;exitY=1;exitDx=0;exitDy=0;strokeColor=#00FF00;strokeWidth=3;startFill=0;fontSize=15;" parent="1" source="FZY7Oqexer8E_CtcWSiL-1" target="FZY7Oqexer8E_CtcWSiL-8" edge="1">
          <mxGeometry width="50" height="50" relative="1" as="geometry">
            <mxPoint x="723.4999999999995" y="184.25" as="sourcePoint" />
            <mxPoint x="588.25" y="230.13" as="targetPoint" />
          </mxGeometry>
        </mxCell>
        <mxCell id="FZY7Oqexer8E_CtcWSiL-37" value="" style="endArrow=none;startArrow=classic;html=1;rounded=0;strokeWidth=3;strokeColor=#FF0000;endFill=0;exitX=1;exitY=0.5;exitDx=0;exitDy=0;entryX=0;entryY=0.5;entryDx=0;entryDy=0;fontSize=15;" parent="1" source="FZY7Oqexer8E_CtcWSiL-34" target="FZY7Oqexer8E_CtcWSiL-28" edge="1">
          <mxGeometry width="50" height="50" relative="1" as="geometry">
            <mxPoint x="545" y="656" as="sourcePoint" />
            <mxPoint x="545" y="610" as="targetPoint" />
          </mxGeometry>
        </mxCell>
        <mxCell id="FZY7Oqexer8E_CtcWSiL-39" value="Smart-Contracts do not execute transfer of funds, its the founders that act upon behalf of the DAO" style="rounded=1;whiteSpace=wrap;html=1;fontSize=15;fontColor=#050505;fillColor=#00FF00;" parent="1" vertex="1">
          <mxGeometry x="-230" y="130" width="203.5" height="78.37" as="geometry" />
        </mxCell>
        <mxCell id="FZY7Oqexer8E_CtcWSiL-40" value="&lt;u&gt;Founders:&lt;/u&gt; &lt;span style=&quot;font-weight: normal;&quot;&gt;Are DAO-Members with the aditional authority to sign transactions from treasury wallets to operational wallets on behalf of the DAO.&lt;/span&gt;&lt;br style=&quot;border-color: var(--border-color); font-size: 15px;&quot;&gt;&lt;br style=&quot;border-color: var(--border-color); font-size: 15px;&quot;&gt;&lt;div style=&quot;border-color: var(--border-color); font-size: 15px;&quot;&gt;&lt;span style=&quot;border-color: var(--border-color); background-color: initial; font-size: 15px;&quot;&gt;&lt;u&gt;Members:&lt;/u&gt; &lt;span style=&quot;font-weight: normal;&quot;&gt;Have 1 vote within governance process of the DAO. Members have to be Doxxed and will have to pay taxes on their own behalf, if profits are being payed out via DAO owned wallets to the Private Funding Wallets of Members and Founders.&lt;/span&gt;&lt;/span&gt;&lt;/div&gt;&lt;div style=&quot;border-color: var(--border-color); font-size: 15px;&quot;&gt;&lt;span style=&quot;border-color: var(--border-color); background-color: initial; font-size: 15px; font-weight: normal;&quot;&gt;&lt;br&gt;&lt;/span&gt;&lt;/div&gt;&lt;div style=&quot;border-color: var(--border-color); font-size: 15px;&quot;&gt;&lt;span style=&quot;border-color: var(--border-color); background-color: initial; font-size: 15px; font-weight: normal;&quot;&gt;A Member has to be invited via the DAO-Governance process.&lt;br&gt;&lt;/span&gt;&lt;/div&gt;&lt;div style=&quot;border-color: var(--border-color); font-size: 15px;&quot;&gt;&lt;span style=&quot;border-color: var(--border-color); background-color: initial; font-size: 15px;&quot;&gt;&lt;br style=&quot;border-color: var(--border-color); font-size: 15px;&quot;&gt;&lt;/span&gt;&lt;/div&gt;&lt;div style=&quot;border-color: var(--border-color); font-size: 15px;&quot;&gt;&lt;span style=&quot;border-color: var(--border-color); background-color: initial; font-size: 15px;&quot;&gt;&lt;u&gt;Operators:&lt;/u&gt; &lt;span style=&quot;font-weight: normal;&quot;&gt;Are DAO-Members that take control of a single operational Hot-Wallet =&amp;gt; Operators hold the private keys, not the DAO!&lt;/span&gt;&lt;/span&gt;&lt;/div&gt;&lt;div style=&quot;border-color: var(--border-color); font-size: 15px;&quot;&gt;&lt;br&gt;&lt;/div&gt;&lt;div style=&quot;border-color: var(--border-color); font-size: 15px;&quot;&gt;&lt;span style=&quot;border-color: var(--border-color); background-color: initial; font-size: 15px;&quot;&gt;&lt;br&gt;&lt;/span&gt;&lt;/div&gt;&lt;div style=&quot;border-color: var(--border-color); font-size: 15px;&quot;&gt;&lt;br&gt;&lt;/div&gt;" style="rounded=1;whiteSpace=wrap;html=1;fontSize=15;align=left;fontColor=#000000;fontStyle=1;verticalAlign=top;strokeColor=none;" parent="1" vertex="1">
          <mxGeometry x="853.25" y="134" width="523.5" height="240" as="geometry" />
        </mxCell>
        <mxCell id="FZY7Oqexer8E_CtcWSiL-43" value="Implemented" style="rounded=1;whiteSpace=wrap;html=1;fillColor=#00FF00;fontStyle=1" parent="1" vertex="1">
          <mxGeometry x="910" y="56.510000000000005" width="120" height="60" as="geometry" />
        </mxCell>
        <mxCell id="FZY7Oqexer8E_CtcWSiL-44" value="Planned" style="rounded=1;whiteSpace=wrap;html=1;fillColor=#B266FF;fontStyle=1" parent="1" vertex="1">
          <mxGeometry x="1063" y="56.510000000000005" width="120" height="60" as="geometry" />
        </mxCell>
        <mxCell id="FZY7Oqexer8E_CtcWSiL-47" value="Outlook" style="rounded=1;whiteSpace=wrap;html=1;fillColor=#FFFF00;fontStyle=1" parent="1" vertex="1">
          <mxGeometry x="1213" y="56.510000000000005" width="120" height="60" as="geometry" />
        </mxCell>
      </root>
    </mxGraphModel>
  </diagram>
</mxfile>
